<?xml version="1.0" encoding="UTF-8" standalone="no"?>
<!DOCTYPE svg PUBLIC "-//W3C//DTD SVG 1.1//EN" "http://www.w3.org/Graphics/SVG/1.1/DTD/svg11.dtd">
<svg width="100%" height="100%" viewBox="0 0 227 227" version="1.1" xmlns="http://www.w3.org/2000/svg" xmlns:xlink="http://www.w3.org/1999/xlink" xml:space="preserve" xmlns:serif="http://www.serif.com/" style="fill-rule:evenodd;clip-rule:evenodd;stroke-linejoin:round;stroke-miterlimit:2;">
    <g transform="matrix(1,0,0,1,-24016,-1203)">
        <g id="logo" transform="matrix(0.713118,0,0,0.713118,7314.68,345.119)">
            <rect x="23420.3" y="1203" width="318" height="318" style="fill:none;"/>
            <g transform="matrix(1.16796,0,0,1.16796,-7135.96,-7070.1)">
                <path d="M26292.3,7164.19C26292.9,7161.42 26295.3,7159.43 26298.2,7159.43C26301,7159.43 26303.5,7161.42 26304,7164.19C26305.6,7171.62 26307.1,7179.02 26308.2,7184.25C26308.6,7186.04 26309.7,7187.55 26311.4,7188.38C26313,7189.2 26314.9,7189.23 26316.6,7188.47C26319.2,7187.28 26322.2,7185.87 26325.3,7184.48C26327.5,7183.43 26330.2,7183.91 26332,7185.69C26333.8,7187.45 26334.2,7190.14 26333.2,7192.41C26331.8,7195.45 26330.4,7198.52 26329.2,7201.12C26328.5,7202.78 26328.5,7204.69 26329.3,7206.31C26330.1,7207.94 26331.6,7209.1 26333.4,7209.47C26338.7,7210.56 26346.1,7212.1 26353.5,7213.64C26356.3,7214.22 26358.3,7216.66 26358.3,7219.5C26358.3,7222.34 26356.3,7224.78 26353.5,7225.36C26346.1,7226.9 26338.7,7228.44 26333.4,7229.53C26331.6,7229.9 26330.1,7231.06 26329.3,7232.69C26328.5,7234.31 26328.5,7236.22 26329.2,7237.88C26330.4,7240.48 26331.8,7243.55 26333.2,7246.59C26334.2,7248.86 26333.8,7251.55 26332,7253.32C26330.2,7255.09 26327.5,7255.57 26325.3,7254.52C26322.2,7253.13 26319.2,7251.72 26316.6,7250.53C26314.9,7249.77 26313,7249.8 26311.4,7250.62C26309.7,7251.45 26308.6,7252.96 26308.2,7254.75C26307.1,7259.98 26305.6,7267.38 26304,7274.81C26303.5,7277.58 26301,7279.57 26298.2,7279.57C26295.3,7279.57 26292.9,7277.58 26292.3,7274.81C26290.8,7267.38 26289.2,7259.98 26288.2,7254.75C26287.8,7252.96 26286.6,7251.45 26285,7250.62C26283.4,7249.8 26281.5,7249.77 26279.8,7250.53C26277.2,7251.72 26274.1,7253.13 26271.1,7254.52C26268.8,7255.57 26266.1,7255.09 26264.4,7253.32C26262.6,7251.55 26262.1,7248.86 26263.2,7246.59C26264.6,7243.55 26266,7240.48 26267.2,7237.88C26267.9,7236.22 26267.9,7234.31 26267.1,7232.69C26266.2,7231.06 26264.7,7229.9 26262.9,7229.53C26257.7,7228.44 26250.3,7226.9 26242.9,7225.36C26240.1,7224.78 26238.1,7222.34 26238.1,7219.5C26238.1,7216.66 26240.1,7214.22 26242.9,7213.64C26250.3,7212.1 26257.7,7210.56 26262.9,7209.47C26264.7,7209.1 26266.2,7207.94 26267.1,7206.31C26267.9,7204.69 26267.9,7202.78 26267.2,7201.12C26266,7198.52 26264.6,7195.45 26263.2,7192.41C26262.1,7190.14 26262.6,7187.45 26264.4,7185.69C26266.1,7183.91 26268.8,7183.43 26271.1,7184.48C26274.1,7185.87 26277.2,7187.28 26279.8,7188.47C26281.5,7189.23 26283.4,7189.2 26285,7188.38C26286.6,7187.55 26287.8,7186.04 26288.2,7184.25C26289.2,7179.02 26290.8,7171.62 26292.3,7164.19Z" style="fill:rgb(199,229,144);"/>
            </g>
            <g transform="matrix(0.700642,0,0,0.700642,5153.98,-3696.01)">
                <path d="M26291.5,7168.31C26292.1,7165.13 26294.9,7162.85 26298.2,7162.85C26301.4,7162.85 26304.2,7165.13 26304.9,7168.31C26306,7173.8 26307.1,7179.06 26308,7183.18C26308.4,7185.22 26309.7,7186.96 26311.6,7187.9C26313.5,7188.85 26315.7,7188.89 26317.6,7188.02C26319.3,7187.22 26321.2,7186.35 26323.1,7185.46C26325.7,7184.26 26328.8,7184.82 26330.8,7186.84C26332.9,7188.87 26333.4,7191.95 26332.2,7194.55C26331.3,7196.49 26330.5,7198.39 26329.7,7200.12C26328.8,7202.02 26328.8,7204.21 26329.8,7206.07C26330.7,7207.94 26332.5,7209.27 26334.5,7209.7C26338.6,7210.55 26343.9,7211.65 26349.4,7212.79C26352.6,7213.45 26354.8,7216.25 26354.8,7219.5C26354.8,7222.75 26352.6,7225.55 26349.4,7226.21C26343.9,7227.36 26338.6,7228.45 26334.5,7229.3C26332.5,7229.73 26330.7,7231.06 26329.8,7232.93C26328.8,7234.79 26328.8,7236.98 26329.7,7238.88C26330.5,7240.61 26331.3,7242.51 26332.2,7244.45C26333.4,7247.05 26332.9,7250.13 26330.8,7252.16C26328.8,7254.18 26325.7,7254.74 26323.1,7253.54C26321.2,7252.65 26319.3,7251.78 26317.6,7250.98C26315.7,7250.11 26313.5,7250.15 26311.6,7251.1C26309.7,7252.04 26308.4,7253.78 26308,7255.82C26307.1,7259.94 26306,7265.2 26304.9,7270.69C26304.2,7273.87 26301.4,7276.15 26298.2,7276.15C26294.9,7276.15 26292.1,7273.87 26291.5,7270.69C26290.3,7265.2 26289.2,7259.94 26288.4,7255.82C26288,7253.78 26286.6,7252.04 26284.8,7251.1C26282.9,7250.15 26280.7,7250.11 26278.8,7250.98C26277.1,7251.78 26275.2,7252.65 26273.2,7253.54C26270.6,7254.74 26267.6,7254.18 26265.5,7252.16C26263.5,7250.13 26262.9,7247.05 26264.1,7244.45C26265,7242.51 26265.9,7240.61 26266.7,7238.88C26267.6,7236.98 26267.5,7234.79 26266.6,7232.93C26265.6,7231.06 26263.9,7229.73 26261.9,7229.3C26257.7,7228.45 26252.5,7227.36 26247,7226.21C26243.8,7225.55 26241.5,7222.75 26241.5,7219.5C26241.5,7216.25 26243.8,7213.45 26247,7212.79C26252.5,7211.65 26257.7,7210.55 26261.9,7209.7C26263.9,7209.27 26265.6,7207.94 26266.6,7206.07C26267.5,7204.21 26267.6,7202.02 26266.7,7200.12C26265.9,7198.39 26265,7196.49 26264.1,7194.55C26262.9,7191.95 26263.5,7188.87 26265.5,7186.84C26267.6,7184.82 26270.6,7184.26 26273.2,7185.46C26275.2,7186.35 26277.1,7187.22 26278.8,7188.02C26280.7,7188.89 26282.9,7188.85 26284.8,7187.9C26286.6,7186.96 26288,7185.22 26288.4,7183.18C26289.2,7179.06 26290.3,7173.8 26291.5,7168.31Z" style="fill:rgb(180,144,227);"/>
            </g>
            <g transform="matrix(0.423066,0,0,0.423066,12453.7,-1692.08)">
                <path d="M26291.7,7167.4C26292.3,7164.3 26295,7162.09 26298.2,7162.09C26301.3,7162.09 26304.1,7164.3 26304.7,7167.4C26305.9,7173.33 26307.1,7179.03 26308,7183.42C26308.4,7185.4 26309.7,7187.09 26311.6,7188.01C26313.4,7188.92 26315.5,7188.96 26317.3,7188.12C26319.3,7187.23 26321.4,7186.24 26323.6,7185.24C26326.1,7184.08 26329.1,7184.62 26331.1,7186.59C26333.1,7188.56 26333.6,7191.54 26332.4,7194.08C26331.4,7196.26 26330.5,7198.41 26329.6,7200.35C26328.7,7202.19 26328.8,7204.32 26329.7,7206.13C26330.6,7207.94 26332.3,7209.23 26334.3,7209.65C26338.6,7210.56 26344.4,7211.74 26350.3,7212.98C26353.4,7213.62 26355.6,7216.34 26355.6,7219.5C26355.6,7222.66 26353.4,7225.38 26350.3,7226.02C26344.4,7227.26 26338.6,7228.44 26334.3,7229.35C26332.3,7229.77 26330.6,7231.06 26329.7,7232.87C26328.8,7234.68 26328.7,7236.81 26329.6,7238.65C26330.5,7240.59 26331.4,7242.74 26332.4,7244.92C26333.6,7247.46 26333.1,7250.44 26331.1,7252.41C26329.1,7254.38 26326.1,7254.92 26323.6,7253.76C26321.4,7252.76 26319.3,7251.77 26317.3,7250.88C26315.5,7250.04 26313.4,7250.08 26311.6,7250.99C26309.7,7251.91 26308.4,7253.6 26308,7255.58C26307.1,7259.97 26305.9,7265.67 26304.7,7271.61C26304.1,7274.7 26301.3,7276.91 26298.2,7276.91C26295,7276.91 26292.3,7274.7 26291.7,7271.61C26290.4,7265.67 26289.2,7259.97 26288.3,7255.58C26287.9,7253.6 26286.6,7251.91 26284.8,7250.99C26283,7250.08 26280.9,7250.04 26279,7250.88C26277.1,7251.77 26274.9,7252.76 26272.8,7253.76C26270.2,7254.92 26267.2,7254.38 26265.3,7252.41C26263.3,7250.44 26262.8,7247.46 26263.9,7244.92C26264.9,7242.74 26265.9,7240.59 26266.8,7238.65C26267.6,7236.81 26267.6,7234.68 26266.7,7232.87C26265.8,7231.06 26264.1,7229.77 26262.1,7229.35C26257.7,7228.44 26252,7227.26 26246.1,7226.02C26243,7225.38 26240.8,7222.66 26240.8,7219.5C26240.8,7216.34 26243,7213.62 26246.1,7212.98C26252,7211.74 26257.7,7210.56 26262.1,7209.65C26264.1,7209.23 26265.8,7207.94 26266.7,7206.13C26267.6,7204.32 26267.6,7202.19 26266.8,7200.35C26265.9,7198.41 26264.9,7196.26 26263.9,7194.08C26262.8,7191.54 26263.3,7188.56 26265.3,7186.59C26267.2,7184.62 26270.2,7184.08 26272.8,7185.24C26274.9,7186.24 26277.1,7187.23 26279,7188.12C26280.9,7188.96 26283,7188.92 26284.8,7188.01C26286.6,7187.09 26287.9,7185.4 26288.3,7183.42C26289.2,7179.03 26290.4,7173.33 26291.7,7167.4Z" style="fill:rgb(84,36,145);"/>
            </g>
        </g>
    </g>
</svg>
