<?xml version="1.0" encoding="UTF-8" standalone="no"?>
<!DOCTYPE svg PUBLIC "-//W3C//DTD SVG 1.1//EN" "http://www.w3.org/Graphics/SVG/1.1/DTD/svg11.dtd">
<svg width="100%" height="100%" viewBox="0 0 1135 690" version="1.1" xmlns="http://www.w3.org/2000/svg" xmlns:xlink="http://www.w3.org/1999/xlink" xml:space="preserve" xmlns:serif="http://www.serif.com/" style="fill-rule:evenodd;clip-rule:evenodd;stroke-linejoin:round;stroke-miterlimit:2;">
    <g id="Artboard5" transform="matrix(2.30719,0,0,1.86524,-2199.99,-267.996)">
        <rect x="953.539" y="143.679" width="491.898" height="369.442" style="fill:none;"/>
        <clipPath id="_clip1">
            <rect x="953.539" y="143.679" width="491.898" height="369.442"/>
        </clipPath>
        <g clip-path="url(#_clip1)">
            <g transform="matrix(0.673639,0,0,0.833248,1199.49,328.393)">
                <clipPath id="_clip2">
                    <rect x="-365.11" y="-221.679" width="730.221" height="443.358"/>
                </clipPath>
                <g clip-path="url(#_clip2)">
                    <g transform="matrix(1,0,0,1,-508,-320.5)">
                        <g id="Artboard4" transform="matrix(1,0,0,1,-993,-9089.49)">
                            <g>
                                <rect x="993" y="9089.49" width="1016" height="640.509" style="fill:none;"/>
                                <g transform="matrix(2.33519,0,0,2.33519,75.0275,3017.18)">
                                    <path d="M498.41,2810.73C499.199,2805.57 501.798,2801.14 506.208,2797.44C510.618,2793.74 515.401,2791.89 520.557,2791.89C525.807,2791.89 530.134,2793.78 533.538,2797.58C536.942,2801.38 538.235,2805.95 537.418,2811.29C536.63,2816.45 534.047,2820.92 529.669,2824.72C525.292,2828.52 520.478,2830.42 515.228,2830.42C509.885,2830.42 505.541,2828.47 502.199,2824.58C498.856,2820.69 497.593,2816.07 498.41,2810.73ZM582.949,2745.87C600.748,2745.87 612.989,2760.32 610.268,2778.12C607.546,2795.92 590.887,2810.37 573.088,2810.37C555.289,2810.37 543.048,2795.92 545.769,2778.12C548.49,2760.32 565.15,2745.87 582.949,2745.87Z" style="fill:rgb(103,76,232);"/>
                                </g>
                                <g transform="matrix(0.862185,0.106318,-0.106318,0.862185,-4176.96,6366.19)">
                                    <path d="M7301.8,2434.17C7304.06,2408.84 7285.32,2386.44 7259.99,2384.19C7234.65,2381.93 7212.26,2400.67 7210,2426.01C7205.72,2474.15 7165.21,2511.92 7115.96,2511.92C7090.49,2511.92 7067.37,2501.81 7050.38,2485.39C7040.28,2475.63 7026.27,2471.01 7012.35,2472.84C6998.42,2474.67 6986.09,2482.76 6978.85,2494.8C6956.57,2531.9 6915.95,2556.78 6869.56,2556.78C6822.86,2556.78 6782,2531.57 6759.82,2494.05C6752.6,2481.84 6740.15,2473.63 6726.08,2471.8C6712.01,2469.98 6697.89,2474.73 6687.79,2484.7C6670.74,2501.52 6647.32,2511.92 6621.5,2511.92C6596.6,2511.92 6573.94,2502.25 6557.07,2486.48C6538.49,2469.11 6509.3,2470.1 6491.94,2488.68C6474.57,2507.25 6475.55,2536.44 6494.13,2553.81C6527.49,2584.99 6572.28,2604.08 6621.5,2604.08C6653.93,2604.08 6684.44,2595.79 6711.03,2581.22C6750.99,2622.95 6807.27,2648.94 6869.56,2648.94C6931.56,2648.94 6987.59,2623.19 7027.52,2581.81C7053.85,2596.02 7083.97,2604.08 7115.96,2604.08C7213.32,2604.08 7293.34,2529.34 7301.8,2434.17Z" style="fill:rgb(103,76,232);"/>
                                </g>
                            </g>
                        </g>
                    </g>
                </g>
            </g>
        </g>
    </g>
</svg>
