<?xml version="1.0" encoding="UTF-8" standalone="no"?>
<!DOCTYPE svg PUBLIC "-//W3C//DTD SVG 1.1//EN" "http://www.w3.org/Graphics/SVG/1.1/DTD/svg11.dtd">
<svg width="100%" height="100%" viewBox="0 0 476 296" version="1.1" xmlns="http://www.w3.org/2000/svg" xmlns:xlink="http://www.w3.org/1999/xlink" xml:space="preserve" xmlns:serif="http://www.serif.com/" style="fill-rule:evenodd;clip-rule:evenodd;stroke-linecap:round;stroke-linejoin:round;stroke-miterlimit:10;">
    <g transform="matrix(1,0,0,1,-162.13239,-252.061119)">
        <g transform="matrix(1.333333,0,0,1.333333,0,0.000001)">
            <g transform="matrix(7.564769,0,0,7.572037,118.375483,118.311922)">
                <path d="M4.914,19.607C4.048,20.517 3.222,21.488 2.44,22.514C1.762,23.404 1.755,24.636 2.425,25.532C7.759,32.668 15.448,37.15 24.001,37.15C32.554,37.15 40.243,32.668 45.577,25.532C46.247,24.636 46.24,23.404 45.562,22.514C40.076,15.318 32.446,10.85 24.002,10.85C18.679,10.85 13.678,12.626 9.335,15.741" style="fill:none;fill-rule:nonzero;stroke:rgb(249,115,22);stroke-width:3px;"/>
            </g>
        </g>
        <g transform="matrix(1.333333,0,0,1.333333,0,0.000001)">
            <g transform="matrix(7.564769,0,0,7.572037,118.375483,118.311922)">
                <path d="M35.61,30.202C33.393,34.342 29.026,37.159 24.001,37.159C16.733,37.159 10.842,31.267 10.842,24C10.842,16.733 16.734,10.841 24.001,10.841C30.245,10.841 35.474,15.19 36.823,21.025" style="fill:none;fill-rule:nonzero;stroke:rgb(249,115,22);stroke-width:3px;"/>
            </g>
        </g>
        <g transform="matrix(1.333333,0,0,1.333333,0,0.000001)">
            <path d="M276.5,288.586L257,335.281C255.297,339.363 259.391,343.457 263.469,341.754L310.121,322.234C314.961,320.207 318.82,316.352 320.84,311.504L340.348,264.809C342.051,260.727 337.957,256.629 333.879,258.336L287.23,277.855C282.379,279.875 278.527,283.73 276.5,288.586ZM299.703,312.383C292.895,312.383 287.371,306.863 287.371,300.039C287.371,293.219 292.887,287.699 299.703,287.699C306.512,287.699 312.035,293.219 312.035,300.039C312.035,306.863 306.512,312.383 299.703,312.383Z" style="fill:rgb(249,115,22);fill-rule:nonzero;"/>
        </g>
        <g transform="matrix(1.333333,0,0,1.333333,0,0.000001)">
            <path d="M311.285,231.891C311.285,232.637 311.211,233.375 311.066,234.109C310.922,234.84 310.707,235.551 310.422,236.238C310.137,236.93 309.785,237.582 309.371,238.203C308.957,238.824 308.488,239.395 307.961,239.922C307.434,240.449 306.859,240.922 306.242,241.336C305.621,241.75 304.969,242.102 304.281,242.387C303.59,242.672 302.883,242.887 302.152,243.031C301.422,243.18 300.684,243.25 299.938,243.25C299.191,243.25 298.453,243.18 297.723,243.031C296.992,242.887 296.285,242.672 295.594,242.387C294.906,242.102 294.254,241.75 293.633,241.336C293.016,240.922 292.441,240.449 291.914,239.922C291.387,239.395 290.918,238.824 290.504,238.203C290.09,237.582 289.738,236.93 289.453,236.238C289.168,235.551 288.953,234.84 288.809,234.109C288.664,233.375 288.59,232.637 288.59,231.891C288.59,231.148 288.664,230.406 288.809,229.676C288.953,228.945 289.168,228.234 289.453,227.547C289.738,226.855 290.09,226.203 290.504,225.582C290.918,224.961 291.387,224.387 291.914,223.859C292.441,223.332 293.016,222.863 293.633,222.449C294.254,222.035 294.906,221.684 295.594,221.398C296.285,221.113 296.992,220.898 297.723,220.754C298.453,220.605 299.191,220.535 299.938,220.535C300.684,220.535 301.422,220.605 302.152,220.754C302.883,220.898 303.59,221.113 304.281,221.398C304.969,221.684 305.621,222.035 306.242,222.449C306.859,222.863 307.434,223.332 307.961,223.859C308.488,224.387 308.957,224.961 309.371,225.582C309.785,226.203 310.137,226.855 310.422,227.547C310.707,228.234 310.922,228.945 311.066,229.676C311.211,230.406 311.285,231.148 311.285,231.891Z" style="fill:rgb(249,115,22);fill-rule:nonzero;"/>
        </g>
        <g transform="matrix(1.333333,0,0,1.333333,0,0.000001)">
            <path d="M311.285,368.188C311.285,368.934 311.211,369.672 311.066,370.406C310.922,371.137 310.707,371.848 310.422,372.535C310.137,373.227 309.785,373.879 309.371,374.5C308.957,375.121 308.488,375.691 307.961,376.219C307.434,376.746 306.859,377.219 306.242,377.633C305.621,378.047 304.969,378.398 304.281,378.684C303.59,378.969 302.883,379.184 302.152,379.328C301.422,379.473 300.684,379.547 299.938,379.547C299.191,379.547 298.453,379.473 297.723,379.328C296.992,379.184 296.285,378.969 295.594,378.684C294.906,378.398 294.254,378.047 293.633,377.633C293.016,377.219 292.441,376.746 291.914,376.219C291.387,375.691 290.918,375.121 290.504,374.5C290.09,373.879 289.738,373.227 289.453,372.535C289.168,371.848 288.953,371.137 288.809,370.406C288.664,369.672 288.59,368.934 288.59,368.188C288.59,367.441 288.664,366.703 288.809,365.973C288.953,365.242 289.168,364.531 289.453,363.844C289.738,363.152 290.09,362.5 290.504,361.879C290.918,361.258 291.387,360.684 291.914,360.156C292.441,359.629 293.016,359.16 293.633,358.746C294.254,358.332 294.906,357.98 295.594,357.695C296.285,357.41 296.992,357.195 297.723,357.051C298.453,356.902 299.191,356.832 299.938,356.832C300.684,356.832 301.422,356.902 302.152,357.051C302.883,357.195 303.59,357.41 304.281,357.695C304.969,357.98 305.621,358.332 306.242,358.746C306.859,359.16 307.434,359.629 307.961,360.156C308.488,360.684 308.957,361.258 309.371,361.879C309.785,362.5 310.137,363.152 310.422,363.844C310.707,364.531 310.922,365.242 311.066,365.973C311.211,366.703 311.285,367.441 311.285,368.188Z" style="fill:rgb(249,115,22);fill-rule:nonzero;"/>
        </g>
        <g transform="matrix(1.333333,0,0,1.333333,0,0.000001)">
            <path d="M379.367,300.039C379.367,300.785 379.293,301.523 379.148,302.258C379.004,302.988 378.789,303.699 378.504,304.387C378.219,305.078 377.871,305.73 377.457,306.352C377.043,306.973 376.57,307.543 376.043,308.07C375.516,308.598 374.945,309.07 374.324,309.484C373.703,309.898 373.051,310.25 372.363,310.535C371.676,310.82 370.965,311.035 370.234,311.18C369.504,311.324 368.766,311.398 368.02,311.398C367.273,311.398 366.539,311.324 365.809,311.18C365.074,311.035 364.367,310.82 363.68,310.535C362.988,310.25 362.336,309.898 361.715,309.484C361.098,309.07 360.523,308.598 359.996,308.07C359.469,307.543 359,306.973 358.586,306.352C358.172,305.73 357.82,305.078 357.535,304.387C357.25,303.699 357.035,302.988 356.891,302.258C356.746,301.523 356.672,300.785 356.672,300.039C356.672,299.297 356.746,298.555 356.891,297.824C357.035,297.094 357.25,296.383 357.535,295.695C357.82,295.004 358.172,294.352 358.586,293.73C359,293.109 359.469,292.535 359.996,292.008C360.523,291.48 361.098,291.012 361.715,290.598C362.336,290.184 362.988,289.832 363.68,289.547C364.367,289.262 365.074,289.047 365.809,288.902C366.539,288.754 367.273,288.684 368.02,288.684C368.766,288.684 369.504,288.754 370.234,288.902C370.965,289.047 371.676,289.262 372.363,289.547C373.051,289.832 373.703,290.184 374.324,290.598C374.945,291.012 375.516,291.48 376.043,292.008C376.57,292.535 377.043,293.109 377.457,293.73C377.871,294.352 378.219,295.004 378.504,295.695C378.789,296.383 379.004,297.094 379.148,297.824C379.293,298.555 379.367,299.297 379.367,300.039Z" style="fill:rgb(249,115,22);fill-rule:nonzero;"/>
        </g>
        <g transform="matrix(1.333333,0,0,1.333333,0,0.000001)">
            <path d="M243.203,300.039C243.203,300.785 243.129,301.523 242.984,302.258C242.84,302.988 242.625,303.699 242.34,304.387C242.055,305.078 241.703,305.73 241.289,306.352C240.875,306.973 240.406,307.543 239.879,308.07C239.352,308.598 238.777,309.07 238.16,309.484C237.539,309.898 236.887,310.25 236.195,310.535C235.508,310.82 234.801,311.035 234.066,311.18C233.336,311.324 232.602,311.398 231.855,311.398C231.109,311.398 230.371,311.324 229.641,311.18C228.91,311.035 228.199,310.82 227.512,310.535C226.824,310.25 226.172,309.898 225.551,309.484C224.93,309.07 224.359,308.598 223.832,308.07C223.305,307.543 222.832,306.973 222.418,306.352C222.004,305.73 221.656,305.078 221.371,304.387C221.086,303.699 220.871,302.988 220.727,302.258C220.582,301.523 220.508,300.785 220.508,300.039C220.508,299.297 220.582,298.555 220.727,297.824C220.871,297.094 221.086,296.383 221.371,295.695C221.656,295.004 222.004,294.352 222.418,293.73C222.832,293.109 223.305,292.535 223.832,292.008C224.359,291.48 224.93,291.012 225.551,290.598C226.172,290.184 226.824,289.832 227.512,289.547C228.199,289.262 228.91,289.047 229.641,288.902C230.371,288.754 231.109,288.684 231.855,288.684C232.602,288.684 233.336,288.754 234.066,288.902C234.801,289.047 235.508,289.262 236.195,289.547C236.887,289.832 237.539,290.184 238.16,290.598C238.777,291.012 239.352,291.48 239.879,292.008C240.406,292.535 240.875,293.109 241.289,293.73C241.703,294.352 242.055,295.004 242.34,295.695C242.625,296.383 242.84,297.094 242.984,297.824C243.129,298.555 243.203,299.297 243.203,300.039Z" style="fill:rgb(249,115,22);fill-rule:nonzero;"/>
        </g>
    </g>
</svg>
