<?xml version="1.0" encoding="UTF-8" standalone="no"?><!DOCTYPE svg PUBLIC "-//W3C//DTD SVG 1.1//EN" "http://www.w3.org/Graphics/SVG/1.1/DTD/svg11.dtd"><svg width="100%" height="100%" viewBox="0 0 1210 1372" version="1.1" xmlns="http://www.w3.org/2000/svg" xmlns:xlink="http://www.w3.org/1999/xlink" xml:space="preserve" xmlns:serif="http://www.serif.com/" style="fill-rule:evenodd;clip-rule:evenodd;stroke-linejoin:round;stroke-miterlimit:2;"><rect id="Artboard1" x="0" y="0" width="1209.113" height="1371.267" style="fill:none;"/><clipPath id="_clip1"><rect x="0" y="0" width="1209.113" height="1371.267"/></clipPath><g clip-path="url(#_clip1)"><g id="Calque-1" serif:id="Calque 1"><g id="g3013"><path id="polygon2989" d="M1209.113,2.067l-110.153,1233.997l-495.143,137.27l-493.78,-137.077l-110.037,-1234.19l1209.113,0Z" style="fill:#264de4;fill-rule:nonzero;"/><path id="polygon2991" d="M1004.657,1157.487l94.133,-1054.507l-494.233,-0l0,1165.43l400.1,-110.923Z" style="fill:#2965f1;fill-rule:nonzero;"/><path id="polygon2993" d="M252.257,560.723l13.567,151.367l338.733,0l0,-151.367l-352.3,0Z" style="fill:#ebebeb;fill-rule:nonzero;"/><path id="polygon2995" d="M604.557,254.35l-379.56,0l13.76,151.37l365.8,0l0,-151.37Z" style="fill:#ebebeb;fill-rule:nonzero;"/><path id="polygon2997" d="M604.557,1111.33l0,-157.487l-0.663,0.177l-168.58,-45.52l-10.777,-120.723l-151.95,0l21.207,237.67l310.067,86.077l0.697,-0.193Z" style="fill:#ebebeb;fill-rule:nonzero;"/><path id="polygon3005" d="M790.427,712.09l-17.57,196.313l-168.823,45.567l0,157.48l310.313,-86.003l2.277,-25.573l35.57,-398.503l3.693,-40.647l27.327,-306.373l-379.18,0l0,151.37l213.293,0l-13.773,155.003l-199.52,0l0,151.367l186.393,0Z" style="fill:#fff;fill-rule:nonzero;"/></g></g></g></svg>