<?xml version="1.0" encoding="UTF-8" standalone="no"?><!DOCTYPE svg PUBLIC "-//W3C//DTD SVG 1.1//EN" "http://www.w3.org/Graphics/SVG/1.1/DTD/svg11.dtd"><svg width="100%" height="100%" viewBox="0 0 363 412" version="1.1" xmlns="http://www.w3.org/2000/svg" xmlns:xlink="http://www.w3.org/1999/xlink" xml:space="preserve" xmlns:serif="http://www.serif.com/" style="fill-rule:evenodd;clip-rule:evenodd;stroke-linejoin:round;stroke-miterlimit:2;"><path d="M33,370.4l-33,-370.4l362.8,0l-33,370.2l-148.7,41.2" style="fill:#e44d26;fill-rule:nonzero;"/><path d="M181.4,379.9l0,-349.5l148.3,0l-28.3,316" style="fill:#f16529;fill-rule:nonzero;"/><path d="M67.4,75.7l114,0l0,45.4l-64.2,0l4.2,46.5l60,0l0,45.3l-101.6,0m2,22.8l45.6,0l3.2,36.3l50.8,13.6l0,47.4l-93.2,-26" style="fill:#ebebeb;fill-rule:nonzero;"/><path d="M295,75.7l-113.8,0l0,45.4l109.6,0m-4.1,46.5l-105.5,0l0,45.4l56,0l-5.3,59l-50.7,13.6l0,47.2l93,-25.8" style="fill:#fff;fill-rule:nonzero;"/></svg>