<?xml version="1.0" encoding="UTF-8" standalone="no"?><!DOCTYPE svg PUBLIC "-//W3C//DTD SVG 1.1//EN" "http://www.w3.org/Graphics/SVG/1.1/DTD/svg11.dtd"><svg width="100%" height="100%" viewBox="0 0 3334 3334" version="1.1" xmlns="http://www.w3.org/2000/svg" xmlns:xlink="http://www.w3.org/1999/xlink" xml:space="preserve" xmlns:serif="http://www.serif.com/" style="fill-rule:evenodd;clip-rule:evenodd;stroke-linejoin:round;stroke-miterlimit:2;"><g><path d="M1557.511,0.897c-7.168,0.652 -29.977,2.932 -50.505,4.561c-473.444,42.679 -916.911,298.099 -1197.784,690.677c-156.403,218.28 -256.435,465.881 -294.233,728.143c-13.359,91.547 -14.989,118.588 -14.989,242.714c0,124.126 1.629,151.167 14.989,242.714c90.583,625.845 536.005,1151.672 1140.111,1346.495c108.179,34.86 222.222,58.642 351.906,72.977c50.505,5.538 268.817,5.538 319.322,0c223.851,-24.76 413.49,-80.145 600.521,-175.601c28.674,-14.661 34.213,-18.57 30.303,-21.828c-2.607,-1.955 -124.796,-165.828 -271.424,-363.909l-266.536,-359.999l-333.985,-494.225c-183.773,-271.71 -334.963,-493.899 -336.266,-493.899c-1.303,-0.326 -2.607,219.257 -3.258,487.384c-0.978,469.465 -1.303,488.361 -7.168,499.438c-8.472,15.964 -14.989,22.48 -28.674,29.647c-10.427,5.213 -19.55,6.19 -68.752,6.19l-56.37,0l-14.989,-9.448c-9.775,-6.19 -16.944,-14.335 -21.831,-23.783l-6.843,-14.661l0.652,-653.211l0.978,-653.537l10.101,-12.706c5.213,-6.842 16.292,-15.638 24.112,-19.873c13.359,-6.516 18.573,-7.167 74.943,-7.167c66.471,0 77.55,2.606 94.819,21.502c4.888,5.213 185.728,277.574 402.085,605.646c216.357,328.072 512.219,776.035 657.543,995.944l263.93,399.746l13.359,-8.796c118.28,-76.887 243.402,-186.353 342.457,-300.379c210.818,-242.063 346.693,-537.23 392.31,-851.944c13.359,-91.547 14.989,-118.588 14.989,-242.714c0,-124.126 -1.629,-151.167 -14.989,-242.714c-90.583,-625.845 -536.005,-1151.672 -1140.111,-1346.495c-106.549,-34.534 -219.941,-58.317 -347.019,-72.651c-31.281,-3.258 -246.66,-6.842 -273.705,-4.235Zm682.307,1007.998c15.64,7.819 28.348,22.805 32.91,38.443c2.607,8.471 3.258,189.61 2.607,597.827l-0.978,585.773l-103.291,-158.335l-103.617,-158.335l0,-425.809c0,-275.294 1.303,-430.044 3.258,-437.538c5.213,-18.244 16.618,-32.579 32.258,-41.05c13.359,-6.842 18.247,-7.493 69.404,-7.493c48.224,0 56.696,0.652 67.449,6.516Z" style="fill:#fff;fill-rule:nonzero;"/></g></svg>