<?xml version="1.0" encoding="UTF-8" standalone="no"?><!DOCTYPE svg PUBLIC "-//W3C//DTD SVG 1.1//EN" "http://www.w3.org/Graphics/SVG/1.1/DTD/svg11.dtd"><svg width="100%" height="100%" viewBox="0 0 237 357" version="1.1" xmlns="http://www.w3.org/2000/svg" xmlns:xlink="http://www.w3.org/1999/xlink" xml:space="preserve" xmlns:serif="http://www.serif.com/" style="fill-rule:evenodd;clip-rule:evenodd;stroke-linejoin:round;stroke-miterlimit:2;"><rect id="icon-final" serif:id="icon final" x="0" y="0" width="236.22" height="356.693" style="fill:none;"/><clipPath id="_clip1"><rect x="0" y="0" width="236.22" height="356.693"/></clipPath><g clip-path="url(#_clip1)"><path d="M68.335,241.972c-8.056,-0 -14.586,-6.53 -14.586,-14.586l-0,-0.002c-0,-6.26 -2.92,-12.162 -7.896,-15.96c-27.907,-21.555 -45.853,-55.355 -45.853,-93.314c0,-65.187 52.923,-118.11 118.11,-118.11c65.187,0 118.11,52.923 118.11,118.11c0,37.959 -17.945,71.759 -45.808,93.373c-4.958,3.784 -7.866,9.664 -7.866,15.901l-0,0.048c-0.033,8.04 -6.56,14.54 -14.6,14.54l-99.612,0Zm99.013,-175.242c-9.778,0 -17.717,7.939 -17.717,17.717c0,9.778 7.939,17.717 17.717,17.717c9.778,0 17.717,-7.939 17.717,-17.717c0,-9.778 -7.939,-17.717 -17.717,-17.717Zm-98.475,0c-9.778,0 -17.717,7.939 -17.717,17.717c0,9.778 7.939,17.717 17.717,17.717c9.778,0 17.717,-7.939 17.717,-17.717c0,-9.778 -7.939,-17.717 -17.717,-17.717Zm79.029,71.992l-26.162,44.682c-0.703,1.201 -2.103,1.955 -3.63,1.955c-1.527,0 -2.927,-0.754 -3.63,-1.955l-26.162,-44.682l-7.458,0c-1.428,-0 -2.753,0.66 -3.495,1.742c-0.742,1.082 -0.793,2.428 -0.135,3.551l37.249,63.619c0.703,1.201 2.103,1.955 3.63,1.955c1.527,-0 2.927,-0.754 3.63,-1.955l37.249,-63.619c0.658,-1.123 0.606,-2.469 -0.135,-3.551c-0.742,-1.082 -2.066,-1.742 -3.495,-1.742l-7.458,0Z" style="fill:#ffe15a;"/><path d="M182.511,263.305l0,31.968c0,8.822 -7.162,15.984 -15.984,15.984l-96.833,0c-8.822,0 -15.984,-7.162 -15.984,-15.984l0,-31.968c0,-8.822 7.162,-15.984 15.984,-15.984l96.833,0c8.822,0 15.984,7.162 15.984,15.984Zm-62.902,33.484l4.668,0l0,-18.875l-0.53,-9.3l0.159,0l7.586,16.7l3.448,0l7.586,-16.7l0.159,0l-0.53,9.3l0,18.875l4.668,0l0,-35.8l-4.774,0l-6.499,13.65l-2.255,5.525l-0.159,0l-2.255,-5.525l-6.499,-13.65l-4.774,0l0,35.8Zm-18.116,0.8c2.299,0 4.266,-0.471 5.902,-1.412c1.636,-0.942 2.891,-2.304 3.767,-4.087c0.875,-1.783 1.313,-3.917 1.313,-6.4l0,-24.7l-4.934,0l0,24.6c0,2.517 -0.517,4.412 -1.552,5.688c-1.034,1.275 -2.568,1.912 -4.602,1.912c-3.767,0 -6.233,-1.992 -7.4,-5.975l-4.589,1.6c0.849,2.767 2.33,4.921 4.443,6.463c2.113,1.542 4.664,2.312 7.652,2.312Z" style="fill:#ffe15a;"/><path d="M124.557,354.906c-3.919,2.553 -8.975,2.553 -12.894,-0c-5.934,-3.866 -15.219,-9.914 -24.632,-16.046c-4.38,-2.854 -6.364,-8.247 -4.875,-13.259c1.488,-5.012 6.094,-8.448 11.322,-8.448c15.659,0 33.605,0 49.264,0c5.228,-0 9.834,3.437 11.322,8.448c1.488,5.012 -0.495,10.405 -4.875,13.259c-9.413,6.132 -18.698,12.18 -24.632,16.046Z" style="fill:#ffe15a;"/></g></svg>